# xmcd CD database file
#
# Track frame offsets:
#	150
#	30659
#	151018
#	171124
#	186594
#	199661
#	230456
#	249508
#	276189
#	306723
#
# Disc length: 4131 seconds
#
# Revision: 0
# Processed by: cddbd v1.5.2PL0 Copyright (c) Steve Scherf et al.
# Submitted via: CDex 1.70beta2
#
DISCID=8810210a
DTITLE=Hector Infanzon - Impulsos [CD2)
DYEAR=1900
DGENRE=Jazz
TTITLE0=De fiesta
TTITLE1=Impulsos
TTITLE2=Tumbaito
TTITLE3=Vals
TTITLE4=Funeral
TTITLE5=Por la libre
TTITLE6=Un recuerdo
TTITLE7=Impresion
TTITLE8=La decembrina
TTITLE9=Epilogo
EXTD=
EXTT0=
EXTT1=
EXTT2=
EXTT3=
EXTT4=
EXTT5=
EXTT6=
EXTT7=
EXTT8=
EXTT9=
PLAYORDER=
